<?xml version="1.0" encoding="utf-8"?>
<!-- Generator: Adobe Illustrator 24.3.0, SVG Export Plug-In . SVG Version: 6.00 Build 0)  -->
<svg version="1.1" xmlns="http://www.w3.org/2000/svg" xmlns:xlink="http://www.w3.org/1999/xlink" x="0px" y="0px"
	 viewBox="0 0 405.6 317.2" style="enable-background:new 0 0 405.6 317.2;" xml:space="preserve">
<style type="text/css">
	.st0{display:none;}
	.st1{display:inline;fill:#8DA4FA;}
	.st2{display:inline;}
	.st3{display:inline;opacity:0.44;clip-path:url(#SVGID_2_);}
	.st4{fill:#A8BDDF;}
	.st5{fill:#ABC0E2;}
	.st6{fill:#BBCDEF;}
	.st7{fill:#F4F6FD;}
	.st8{fill:#FFFFFF;}
	.st9{fill:#FF6600;}
	.st10{fill:none;stroke:#FF6600;stroke-miterlimit:10;}
	.st11{fill:none;stroke:#070C09;stroke-width:1.054;stroke-miterlimit:10;}
	.st12{fill:#ECB58C;}
	.st13{clip-path:url(#XMLID_4_);fill:#070707;}
	.st14{clip-path:url(#XMLID_6_);fill:#101010;}
	.st15{fill:#FF6600;stroke:#000000;stroke-width:0.515;stroke-linecap:round;stroke-linejoin:round;stroke-miterlimit:10;}
	.st16{fill:none;stroke:#000000;stroke-width:0.412;stroke-linecap:round;stroke-linejoin:round;stroke-miterlimit:10;}
	.st17{clip-path:url(#XMLID_7_);}
	.st18{clip-path:url(#XMLID_8_);}
	.st19{fill:#C44F00;}
	.st20{fill:#FFEECF;}
	.st21{fill:none;stroke:#D5E1FD;stroke-width:0.515;stroke-linecap:round;stroke-linejoin:round;stroke-miterlimit:10;}
	.st22{fill:#E9B547;}
	.st23{fill:#D69E37;}
	.st24{fill:#F4DAA4;}
	.st25{fill:#101010;}
	.st26{fill:#CECECE;}
	.st27{fill:none;stroke:#FF6600;stroke-width:3.5035;stroke-linecap:round;stroke-linejoin:round;stroke-miterlimit:10;}
	.st28{opacity:0.47;fill:#CFCFCF;}
	.st29{fill:#1D1F30;}
	.st30{fill:#6B2405;}
	.st31{fill:#FDFCFD;}
	.st32{clip-path:url(#XMLID_14_);fill:#D69E37;}
</style>
<g id="BACKGROUND" class="st0">
	<rect x="-268" y="-88.1" class="st1" width="750" height="500"/>
</g>
<g id="OBJECTS">
	<g>
		<g class="st0">
			<g class="st2">
				<g>
					
						<image style="overflow:visible;" width="665" height="393" id="XMLID_5_" xlink:href="DE2FDDE1.png"  transform="matrix(1 0 0 1 -220.9604 -16.0693)">
					</image>
				</g>
			</g>
		</g>
		<g>
			<g>
				<g>
					<g class="st0">
						<defs>
							<path id="SVGID_1_" d="M234.6,67.9c-68.7,0-126.1,44.4-140,111.7c-71.4-14.7-113.3,35-113.3,86.8c0,8.7,2.2,22.2,4.5,30.2
								h127.6H147h211.1c13.9-23,22-50.3,22-79.5C380.1,134.7,313.7,67.9,234.6,67.9z"/>
						</defs>
						<use xlink:href="#SVGID_1_"  style="display:inline;overflow:visible;fill:#D5E1FD;"/>
						<clipPath id="SVGID_2_" class="st2">
							<use xlink:href="#SVGID_1_"  style="overflow:visible;"/>
						</clipPath>
						<g class="st3">
							<g>
								<rect x="182.2" y="231.3" class="st4" width="30.5" height="39.3"/>
								<rect x="236" y="213.6" class="st4" width="30.5" height="43.3"/>
								<rect x="340.9" y="228.7" class="st4" width="24.9" height="40.9"/>
							</g>
							<g>
								
									<ellipse transform="matrix(0.1608 -0.987 0.987 0.1608 -25.8554 281.7332)" class="st5" cx="152.7" cy="156.1" rx="11.5" ry="11.5"/>
								<rect x="132.8" y="153.6" class="st6" width="39.8" height="21.5"/>
								<rect x="120" y="166.8" class="st6" width="64.5" height="137.3"/>
								<g>
									<g>
										<rect x="129.4" y="175.1" class="st7" width="5.7" height="15.2"/>
										<rect x="149.9" y="175.1" class="st7" width="5.7" height="15.2"/>
										<rect x="170.3" y="175.1" class="st7" width="5.7" height="15.2"/>
									</g>
									<g>
										<rect x="129.4" y="197.2" class="st7" width="5.7" height="15.2"/>
										<rect x="149.9" y="197.2" class="st7" width="5.7" height="15.2"/>
										<rect x="170.3" y="197.2" class="st7" width="5.7" height="15.2"/>
									</g>
									<g>
										<rect x="129.4" y="219.2" class="st7" width="5.7" height="15.2"/>
										<rect x="149.9" y="219.2" class="st7" width="5.7" height="15.2"/>
										<rect x="170.3" y="219.2" class="st7" width="5.7" height="15.2"/>
									</g>
									<g>
										<rect x="129.4" y="241.3" class="st7" width="5.7" height="15.2"/>
										<rect x="149.9" y="241.3" class="st7" width="5.7" height="15.2"/>
										<rect x="170.3" y="241.3" class="st7" width="5.7" height="15.2"/>
									</g>
								</g>
								<rect x="116.5" y="261" class="st5" width="70.6" height="7.7"/>
								<rect x="133.1" y="277.5" class="st5" width="37.5" height="26.3"/>
							</g>
							<g>
								<rect x="212.7" y="139.7" class="st6" width="24.7" height="33.1"/>
								<rect x="209.4" y="171.7" class="st6" width="31.3" height="134.3"/>
								<rect x="206.4" y="168.9" class="st5" width="37.3" height="5.7"/>
								<polygon class="st6" points="212.7,139.7 225,112.9 237.4,139.7 								"/>
								<rect x="206.4" y="137.8" class="st5" width="37.3" height="3.9"/>
								<rect x="223.6" y="104.3" class="st5" width="2.8" height="13.3"/>
							</g>
							<g>
								<rect x="295.8" y="144.2" class="st5" width="11.7" height="33.5"/>
								<rect x="283.1" y="165.5" class="st5" width="37" height="6.9"/>
								<polygon class="st6" points="260.2,188.8 270.3,169.7 332.5,169.7 343.1,188.8 								"/>
								<rect x="260.2" y="193.7" class="st6" width="82.9" height="112.4"/>
								<rect x="257.1" y="186.4" class="st5" width="89.1" height="7.3"/>
								<g>
									<rect x="265.6" y="200.1" class="st7" width="4.2" height="81.7"/>
									<rect x="276.9" y="200.1" class="st7" width="4.2" height="81.7"/>
									<rect x="288.2" y="200.1" class="st7" width="4.2" height="81.7"/>
									<rect x="299.5" y="200.1" class="st7" width="4.2" height="81.7"/>
									<rect x="310.8" y="200.1" class="st7" width="4.2" height="81.7"/>
									<rect x="322.1" y="200.1" class="st7" width="4.2" height="81.7"/>
									<rect x="333.4" y="200.1" class="st7" width="4.2" height="81.7"/>
								</g>
							</g>
							<g>
								<polygon class="st6" points="23.6,195.8 33.8,176.7 95.9,176.7 106.5,195.8 								"/>
								<rect x="23.6" y="200.7" class="st6" width="82.9" height="112.4"/>
								<rect x="20.5" y="193.4" class="st5" width="89.1" height="7.3"/>
								<g>
									<rect x="29.1" y="207.1" class="st7" width="4.2" height="81.7"/>
									<rect x="40.4" y="207.1" class="st7" width="4.2" height="81.7"/>
									<rect x="51.7" y="207.1" class="st7" width="4.2" height="81.7"/>
									<rect x="63" y="207.1" class="st7" width="4.2" height="81.7"/>
									<rect x="74.3" y="207.1" class="st7" width="4.2" height="81.7"/>
									<rect x="85.6" y="207.1" class="st7" width="4.2" height="81.7"/>
									<rect x="96.9" y="207.1" class="st7" width="4.2" height="81.7"/>
								</g>
							</g>
						</g>
					</g>
					<g>
						<g>
							<g>
								<path class="st8" d="M316.8,109.7h-42.6c0,0,0.2-2.4,4.9-4.3c4.7-1.9,8.1,3,13.5,0c5.4-3,8.2-7.3,15.1-4.9
									C314.6,103,316.8,109.7,316.8,109.7z"/>
							</g>
							<g>
								<path class="st8" d="M158.2,131.2h-28.4c0,0,0.1-1.6,3.3-2.9c3.2-1.3,5.4,2,9,0c3.6-2,5.5-4.8,10.1-3.3
									C156.7,126.7,158.2,131.2,158.2,131.2z"/>
							</g>
						</g>
						<g>
							<g>
								<g>
									<path class="st9" d="M336.6,68.7h-23.9c-0.6,0-1.1-0.5-1.1-1.1l0,0c0-0.6,0.5-1.1,1.1-1.1h23.9c0.6,0,1.1,0.5,1.1,1.1l0,0
										C337.7,68.2,337.2,68.7,336.6,68.7z"/>
								</g>
							</g>
							<g>
								<path class="st10" d="M106.2,80.9c0,2.6-2.1,4.8-4.8,4.8c-2.6,0-4.8-2.1-4.8-4.8c0-2.6,2.1-4.8,4.8-4.8
									C104.1,76.1,106.2,78.2,106.2,80.9z"/>
								<path class="st10" d="M399.4,257.6c0,2.6-2.1,4.8-4.8,4.8c-2.6,0-4.8-2.1-4.8-4.8c0-2.6,2.1-4.8,4.8-4.8
									C397.3,252.8,399.4,255,399.4,257.6z"/>
								<circle class="st9" cx="372.5" cy="109.7" r="4.8"/>
								<circle class="st9" cx="15.5" cy="168.7" r="4.8"/>
							</g>
							<g>
								<g>
									<g>
										<g>
											
												<ellipse transform="matrix(0.47 -0.8827 0.8827 0.47 45.3006 161.8586)" class="st9" cx="157.4" cy="43.2" rx="20.3" ry="20.3"/>
											<polygon class="st9" points="173.3,47.4 179.3,57.7 167.3,55.4 											"/>
										</g>
									</g>
								</g>
								<g>
									<path class="st8" d="M164.2,39.6c0-4.9-5.2-8.6-10.4-5.9c-0.8,0.4-1.8,1.4-2.3,2.2c-1.4,2.5-1.2,4.9-0.3,6.8h0l0.1,0.1
										c0,0,0.1,0.1,0.1,0.1l5.9,10.8l6-10.8c0,0,0-0.1,0.1-0.1l0,0h0C164,41.8,164.2,40.7,164.2,39.6z"/>
									<path class="st9" d="M160.4,39.5c0,1.7-1.4,3-3,3c-1.7,0-3-1.4-3-3c0-1.7,1.4-3,3-3C159.1,36.5,160.4,37.8,160.4,39.5z"/>
								</g>
							</g>
						</g>
					</g>
				</g>
				<g>
					<line class="st11" x1="389.6" y1="296.6" x2="-39.5" y2="296.6"/>
					<g>
						<g>
							<g>
								<g>
									<polygon class="st12" points="218.2,259.7 218.7,285.1 208.4,284.5 206.7,254.1 									"/>
									<g>
										<g>
											<g>
												<defs>
													<path id="XMLID_2_" d="M218.6,281.3c0,0-7.4,4.4-10.9-2.1l-25.3,13.3l39.9-0.2L218.6,281.3z"/>
												</defs>
												<use xlink:href="#XMLID_2_"  style="overflow:visible;fill:#101010;"/>
												<clipPath id="XMLID_4_">
													<use xlink:href="#XMLID_2_"  style="overflow:visible;"/>
												</clipPath>
												<path class="st13" d="M187.1,284.5c0,0,9.9,1.5,9.1,13.7l-17.1-4.7L187.1,284.5z"/>
											</g>
											
												<rect x="182.5" y="292.5" transform="matrix(1 -6.118452e-03 6.118452e-03 1 -1.7964 1.2444)" class="st8" width="39.9" height="3.5"/>
											<path class="st8" d="M205.1,285.7c-0.1,0-0.2-0.1-0.3-0.2c-1.6-2-3.1-3-3.1-3c-0.3-0.2-0.4-0.6-0.2-0.9
												c0.2-0.3,0.6-0.4,0.9-0.2c0.1,0,1.8,1.1,3.5,3.4c0.2,0.3,0.2,0.7-0.1,0.9C205.6,285.7,205.3,285.7,205.1,285.7z"/>
											<path class="st8" d="M201.8,287.3c-0.1,0-0.2-0.1-0.3-0.2c-1.6-2-3.1-3-3.1-3c-0.3-0.2-0.4-0.6-0.2-0.9
												c0.2-0.3,0.6-0.4,0.9-0.2c0.1,0,1.8,1.1,3.5,3.4c0.2,0.3,0.2,0.7-0.1,0.9C202.3,287.4,202,287.4,201.8,287.3z"/>
											<path class="st8" d="M198.6,288.9c-0.1,0-0.2-0.1-0.3-0.2c-1.6-2-3.1-3-3.1-3c-0.3-0.2-0.4-0.6-0.2-0.9
												c0.2-0.3,0.6-0.4,0.9-0.2c0.1,0,1.8,1.1,3.5,3.4c0.2,0.3,0.2,0.7-0.1,0.9C199,289,198.8,289,198.6,288.9z"/>
										</g>
									</g>
								</g>
								<g>
									<polygon class="st12" points="247.5,259.7 249,285.1 238.7,284.5 235.9,254.1 									"/>
									<g>
										<g>
											<g>
												<defs>
													<path id="XMLID_1_" d="M249,281.3c0,0-7.4,4.4-10.9-2.1l-25.3,13.3l39.9-0.2L249,281.3z"/>
												</defs>
												<use xlink:href="#XMLID_1_"  style="overflow:visible;fill:#101010;"/>
												<clipPath id="XMLID_6_">
													<use xlink:href="#XMLID_1_"  style="overflow:visible;"/>
												</clipPath>
												<path class="st14" d="M217.4,284.5c0,0,9.9,1.5,9.1,13.7l-17.1-4.7L217.4,284.5z"/>
											</g>
											
												<rect x="212.8" y="292.5" transform="matrix(1 -6.118452e-03 6.118452e-03 1 -1.7959 1.4299)" class="st8" width="39.9" height="3.5"/>
											<path class="st8" d="M235.4,285.7c-0.1,0-0.2-0.1-0.3-0.2c-1.6-2-3.1-3-3.1-3c-0.3-0.2-0.4-0.6-0.2-0.9
												c0.2-0.3,0.6-0.4,0.9-0.2c0.1,0,1.8,1.1,3.5,3.4c0.2,0.3,0.2,0.7-0.1,0.9C235.9,285.7,235.6,285.7,235.4,285.7z"/>
											<path class="st8" d="M232.2,287.3c-0.1,0-0.2-0.1-0.3-0.2c-1.6-2-3.1-3-3.1-3c-0.3-0.2-0.4-0.6-0.2-0.9
												c0.2-0.3,0.6-0.4,0.9-0.2c0.1,0,1.8,1.1,3.5,3.4c0.2,0.3,0.2,0.7-0.1,0.9C232.6,287.4,232.4,287.4,232.2,287.3z"/>
											<path class="st8" d="M228.9,288.9c-0.1,0-0.2-0.1-0.3-0.2c-1.6-2-3.1-3-3.1-3c-0.3-0.2-0.4-0.6-0.2-0.9
												c0.2-0.3,0.6-0.4,0.9-0.2c0.1,0,1.8,1.1,3.5,3.4c0.2,0.3,0.2,0.7-0.1,0.9C229.4,289,229.1,289,228.9,288.9z"/>
										</g>
									</g>
								</g>
								<g>
									<g>
										<path class="st9" d="M205.3,140.6c-1,5.2-1.4,29.8-1.4,37l-0.7,97.5h19.6l2.3-110.5l7.6,110.2l20.1,0.1l-6.1-134.2
											L205.3,140.6z"/>
									</g>
									<line class="st15" x1="225" y1="164.7" x2="216.3" y2="163"/>
								</g>
							</g>
							<g>
								<path d="M248.4,34.3c0,0,4.9,3.8-11.6,6.4l-3.9-5.5L248.4,34.3z"/>
								<g>
									<path d="M239.2,41c0.3,8-5.4,14.3-13.8,14.7c-8.4,0.3-8.8-2.4-14.5-11.6c-4.8-7.9,4.9-16.7,13.3-17.1
										C232.7,26.7,238.8,33,239.2,41z"/>
									<polygon class="st12" points="221.5,53.4 220,76.6 231.8,76.2 230.3,55.5 									"/>
									<polygon points="231.1,66.8 222.5,59.1 230.4,56.9 									"/>
									<path class="st12" d="M222.1,31c2.6-0.8,5.3-1.1,8-0.6c3.6,0.6,8.2,2.7,9.1,9.2c1.4,10.8,0.4,18.3-4.9,20.9
										c-4,2-7.1,1.4-11.9-1.1c-1.8-1-3.6-3.9-4.2-5.9l-2.3-5.7C215.9,47.6,209.8,34.9,222.1,31z"/>
									<g>
										<g>
											<polyline class="st16" points="233.6,47.9 234.8,50.1 233.4,51.5 											"/>
										</g>
										<g>
											<g>
												<defs>
													<path id="XMLID_11_" d="M229.9,46.4c0,0-1.9-4.4-6.5-0.8C223.4,45.6,225.8,50,229.9,46.4z"/>
												</defs>
												<use xlink:href="#XMLID_11_"  style="overflow:visible;fill:#FFFFFF;"/>
												<clipPath id="XMLID_7_">
													<use xlink:href="#XMLID_11_"  style="overflow:visible;"/>
												</clipPath>
												<path class="st17" d="M228.8,45.7c0.2,1.1-0.5,2.1-1.6,2.3c-1.1,0.2-2.1-0.6-2.2-1.7c-0.2-1.1,0.5-2.1,1.6-2.3
													C227.7,43.9,228.7,44.6,228.8,45.7z"/>
											</g>
											<g>
												<path d="M223.3,45.6c0.4-0.5,0.9-0.8,1.5-1.1c0.6-0.3,1.2-0.4,1.8-0.4l0,0c0.4,0,0.7,0,1.1,0.1c0.4,0.1,0.7,0.2,1,0.4
													c0.3,0.2,0.6,0.4,0.9,0.7c0.2,0.3,0.4,0.6,0.6,1c0,0.1,0,0.3-0.2,0.3c-0.1,0-0.3,0-0.3-0.2c0,0,0,0,0,0l0,0
													c-0.1-0.3-0.2-0.6-0.4-0.8c-0.2-0.2-0.4-0.4-0.7-0.6c-0.3-0.2-0.6-0.3-0.9-0.3c-0.3-0.1-0.6-0.1-1-0.1l0,0
													c-0.6,0-1.2,0.1-1.7,0.3c-0.5,0.2-1,0.6-1.4,1c0,0-0.1,0.1-0.2,0C223.2,45.7,223.2,45.6,223.3,45.6z"/>
											</g>
										</g>
										<g>
											<g>
												<defs>
													<path id="XMLID_10_" d="M234.4,46.2c0,0,2-4.6,4.6-1.3C239,45,237.7,49.1,234.4,46.2z"/>
												</defs>
												<use xlink:href="#XMLID_10_"  style="overflow:visible;fill:#FFFFFF;"/>
												<clipPath id="XMLID_8_">
													<use xlink:href="#XMLID_10_"  style="overflow:visible;"/>
												</clipPath>
												<path class="st18" d="M235.4,45.3c-0.1,1,0.4,1.9,1.2,2c0.8,0.1,1.5-0.6,1.6-1.6c0.1-1-0.4-1.9-1.2-2
													C236.3,43.6,235.6,44.3,235.4,45.3z"/>
											</g>
											<g>
												<path d="M239,45c-0.2-0.3-0.5-0.6-0.9-0.8c-0.3-0.2-0.8-0.3-1.1-0.2l0,0c-0.5,0.1-1,0.4-1.4,0.8
													c-0.4,0.4-0.7,0.9-0.8,1.3l0,0c0,0.1-0.2,0.2-0.3,0.1s-0.2-0.2-0.1-0.3c0,0,0,0,0,0c0.2-0.6,0.6-1.1,1-1.5
													c0.4-0.4,1-0.7,1.6-0.8l0,0c0.5-0.1,0.9,0,1.3,0.3c0.4,0.2,0.7,0.6,0.9,1c0,0,0,0.1,0,0.1C239,45.1,239,45.1,239,45z"/>
											</g>
										</g>
										<path d="M234.8,40.1c0,0-0.4,1.1,1.3,1.3c1.3,0.1,2.1,0.2,2.8,0.5c0.4,0.1,0.9,0,1.1-0.3l0,0c0.2-0.2,0.2-0.6,0-0.8
											c-0.4-0.5-1.3-1.2-2.9-1.4C235.1,39.1,234.8,40.1,234.8,40.1z"/>
										<path d="M229.4,40.3c0,0,0.6,1.1-1.6,1.3c-1.7,0.2-3.6,0.7-4.5,1c-0.5,0.1-1.1,0-1.4-0.3l0,0c-0.2-0.2-0.3-0.6,0-0.8
											c0.5-0.5,2.5-1.7,4.5-1.9C228.9,39.3,229.4,40.3,229.4,40.3z"/>
										<path class="st8" d="M234.4,52.9h-6.9c0,0,0.6,2.3,3.6,2.4C234.1,55.5,234.4,52.9,234.4,52.9z"/>
									</g>
									<path d="M217.7,49.9c0,0,3.8-11.2-3.5-14.4c0,0-5.2,1.4-2.7,7.2C214,48.5,217.7,49.9,217.7,49.9z"/>
									<g>
										<path class="st12" d="M219.6,53.5c-0.4-1.5-1-2.9-1.9-4.1c-1.3-1.7-3-3.3-5.1-1.9c-3.5,2.4,1.2,8,5.2,8
											C218.9,55.4,219.9,54.5,219.6,53.5L219.6,53.5z"/>
									</g>
									<path d="M227.9,28.9c0,0-1.5,9.7-13.3,11.2l-1.1-5.9l9-6.3L227.9,28.9z"/>
								</g>
								<g>
									<g>
										<g>
											<g>
												<defs>
													<path id="XMLID_9_" d="M223.1,23.2c-10.5,1.9-14,8.2-13.5,15.5l29.2-5.4C236.6,27.9,233.1,21.4,223.1,23.2z"/>
												</defs>
												<use xlink:href="#XMLID_9_"  style="overflow:visible;fill:#FF6600;"/>
												<clipPath id="XMLID_12_">
													<use xlink:href="#XMLID_9_"  style="overflow:visible;"/>
												</clipPath>
											</g>
										</g>
									</g>
									<path class="st19" d="M220.5,36.8c0,0,9.1-5.9,18.1-4.1l9.8,1.6c0,0-8.1,0.4-11.9,2.6C232.6,39.1,223.7,38.7,220.5,36.8z"
										/>
								</g>
							</g>
							<g>
								<g>
									<g>
										<path class="st12" d="M213.3,91.9c0,0-2.6,22.6-7.9,39.8c-0.6,2.1-4.6,4.9-6.8,5l0,0c-3.3,0.2-5.9-2.6-5.5-5.8l6.5-40.3
											L213.3,91.9z"/>
										<g>
											<g>
												<path class="st20" d="M207.1,77.9c0,0-10.5,5.1-13.1,26.6l15.7,6.4L207.1,77.9z"/>
											</g>
										</g>
									</g>
								</g>
								<g>
									<g>
										<path class="st20" d="M228.1,72.3c5.4,0.5,10.7,1.6,15.8,3.7c1.2,0.5,2.4,1,3.6,1.6c3.5,1.8,2.5,5.8,2,9.8l-2.9,53.3
											l-41.3-0.1l-3.7-51.4c-0.4-5.6,2.9-10.8,8.1-12.6c5.8-2,12.8-4.3,15.9-4.5L228.1,72.3z"/>
										<line class="st21" x1="202.6" y1="109.4" x2="202.7" y2="96.2"/>
									</g>
									<path class="st12" d="M216.2,74.4c0,0,3.6-1.6,9.4-2.3c0,0,6.1-0.1,12.2,1.9c0,0-4.5,7.6-16.3,6.5
										C214.7,79.9,216.2,74.4,216.2,74.4z"/>
								</g>
								<g>
									<path class="st12" d="M181.1,151.7c0,0,0.6,5.9,9,5.7s8-7.4,8-7.4L181.1,151.7z"/>
									<g>
										
											<rect x="171.2" y="107.1" transform="matrix(-1 -1.224647e-16 1.224647e-16 -1 389.9628 260.9855)" class="st22" width="47.5" height="46.8"/>
										
											<rect x="207.3" y="107.1" transform="matrix(-1 -1.224647e-16 1.224647e-16 -1 449.4472 260.9855)" class="st23" width="34.8" height="46.8"/>
										
											<rect x="222" y="107.1" transform="matrix(-1 -1.224647e-16 1.224647e-16 -1 451.4942 227.8014)" class="st24" width="7.4" height="13.6"/>
									</g>
									<g>
										<g>
											<g>
												<g>
													<path class="st12" d="M265.2,142.5l-36.8,11.9L227,148c0,0,18.5-10.8,33.5-17.3c2.3-1,6.2,2.8,7.3,5.1l0,0
														C268.9,137.9,267.4,141.5,265.2,142.5z"/>
												</g>
											</g>
										</g>
										<path class="st12" d="M232.9,145.9c0,0-4.6-1.2-8.2-0.4c-2.4,0.6-5.1,2.1-6.6,2.9c-0.6,0.4-0.9,1.2-0.5,1.8l0,0
											c0.3,0.5,0.8,0.8,1.4,0.7l5-0.5l-6.5,3c0,0-5.5-1.1-6.5,0s3.6,2.9,7.9,3.7c0,0,6.9,4.8,12.6-2.8l3.6-5.5L232.9,145.9z"/>
									</g>
								</g>
								<g>
									<g>
										<g>
											<path class="st12" d="M243.9,99c0,0,5.6,23.7,11.8,40.6c0.7,2,5.3,2.4,7.5,2.4l0,0.8c3.3,0,5.8-2.9,5.2-6.1l-8.5-39.9
												L243.9,99z"/>
										</g>
									</g>
									<g>
										<path class="st20" d="M240.4,74.8c0,0,20.5,3.1,24.2,31.7l-21.8,5.5l0-20.5L240.4,74.8z"/>
										<line class="st21" x1="247" y1="111" x2="242.9" y2="96.9"/>
									</g>
								</g>
							</g>
						</g>
						<g>
							<g>
								<g>
									
										<ellipse transform="matrix(0.7071 -0.7071 0.7071 0.7071 -93.7605 337.5306)" class="st25" cx="360.6" cy="281.9" rx="14.6" ry="14.6"/>
									<circle class="st26" cx="360.6" cy="281.9" r="9.9"/>
								</g>
								<polyline class="st27" points="284.3,283.3 343.1,283.3 343.1,145.8 369.2,145.8 								"/>
								<path class="st25" d="M383.3,150.4h-15.8c-2.5,0-4.5-2-4.5-4.5l0,0c0-2.5,2-4.5,4.5-4.5h15.8c2.5,0,4.5,2,4.5,4.5l0,0
									C387.9,148.3,385.8,150.4,383.3,150.4z"/>
								<line class="st27" x1="289.2" y1="283.3" x2="289.2" y2="294.9"/>
								<path class="st27" d="M343.1,257.6h7.6c5.4,0,9.9,4.4,9.9,9.9v15.8h-17.4"/>
							</g>
							<g>
								<rect x="272.4" y="247.7" class="st22" width="69" height="33.9"/>
								<rect x="299.2" y="247.7" class="st24" width="12.6" height="15.9"/>
							</g>
							<g>
								<g>
									<g>
										<rect x="276.1" y="203.3" class="st22" width="65.3" height="44.4"/>
									</g>
									<rect x="305.6" y="203.3" class="st24" width="7.2" height="44.4"/>
									
										<rect x="305.1" y="192.8" transform="matrix(6.123234e-17 -1 1 6.123234e-17 83.2826 534.2463)" class="st24" width="7.2" height="65.3"/>
								</g>
								<rect x="276.1" y="242.7" class="st28" width="65.3" height="5"/>
							</g>
							<g>
								<g>
									<g>
										<rect x="272.6" y="164.2" class="st22" width="68.8" height="39.1"/>
									</g>
									
										<rect x="303.4" y="148.5" transform="matrix(6.123234e-17 -1 1 6.123234e-17 124.1568 489.8687)" class="st24" width="7.2" height="68.8"/>
								</g>
								<rect x="272.6" y="198.3" class="st28" width="68.8" height="5"/>
							</g>
						</g>
						<g>
							
								<rect x="15.6" y="267.7" transform="matrix(-1 -1.224647e-16 1.224647e-16 -1 63.0449 549.5846)" class="st29" width="31.9" height="14.2"/>
							
								<rect x="96.3" y="268.9" transform="matrix(-1 -1.224647e-16 1.224647e-16 -1 226.0346 550.8423)" class="st29" width="33.4" height="13"/>
							<g>
								<rect x="59.9" y="273.1" class="st25" width="4.8" height="23.2"/>
								<circle class="st25" cx="64.7" cy="284.7" r="11.6"/>
								<circle class="st25" cx="59.9" cy="284.7" r="11.6"/>
							</g>
							<g>
								<rect x="30.6" y="273.1" width="4.8" height="23.2"/>
								<circle class="st25" cx="35.4" cy="284.7" r="11.6"/>
								<circle class="st30" cx="30.6" cy="284.7" r="11.6"/>
								<path class="st31" d="M24.1,284.7c0,3.5,2.9,6.4,6.4,6.4c3.5,0,6.4-2.9,6.4-6.4s-2.9-6.4-6.4-6.4
									C27,278.2,24.1,281.1,24.1,284.7z"/>
							</g>
							<g>
								<rect x="112.6" y="273.1" width="4.8" height="23.2"/>
								<circle class="st25" cx="117.4" cy="284.7" r="11.6"/>
								<circle class="st30" cx="112.6" cy="284.7" r="11.6"/>
								<path class="st31" d="M106.2,284.7c0,3.5,2.9,6.4,6.4,6.4c3.5,0,6.4-2.9,6.4-6.4s-2.9-6.4-6.4-6.4
									C109.1,278.2,106.2,281.1,106.2,284.7z"/>
							</g>
							<g>
								<g>
									<defs>
										<path id="XMLID_57_" d="M8.3,260.6c0-3.3,2-4.4,5.1-5.7l14.8-6.3l9.1-23c0.9-2.2,3.1-3.6,5.4-3.6h14.9v59.8H45
											c-1.2,0-2.4-0.7-2.7-1.9c-1.6-4.9-6.2-8.4-11.6-8.4s-10,3.5-11.6,8.4c-0.4,1.2-1.5,1.9-2.7,1.9H8.3V260.6z"/>
									</defs>
									<use xlink:href="#XMLID_57_"  style="overflow:visible;fill:#FF6600;"/>
									<clipPath id="XMLID_13_">
										<use xlink:href="#XMLID_57_"  style="overflow:visible;"/>
									</clipPath>
								</g>
								<path class="st9" d="M10.9,271.3H8.3v-5.2h2.6c1.4,0,2.6,1.2,2.6,2.6l0,0C13.5,270.1,12.3,271.3,10.9,271.3z"/>
							</g>
							<path class="st25" d="M51.1,226h-6.2c-2.1,0-4.1,1.3-4.9,3.4l-7.2,18.9h18.3V226z"/>
							<g>
								<rect x="142.3" y="273.1" class="st25" width="4.8" height="23.2"/>
								<circle class="st25" cx="147.1" cy="284.7" r="11.6"/>
								<circle class="st25" cx="142.3" cy="284.7" r="11.6"/>
							</g>
							<g>
								<g>
									<defs>
										<path id="XMLID_56_" d="M53.8,208.8c0-1.6,1.3-3,3-3h86.1v76.1h-17.3c-0.5,0-0.9-0.3-1-0.8c-1.5-5.5-6.3-9.6-12-9.6
											c-5.7,0-10.6,4.1-12,9.6c-0.1,0.5-0.5,0.8-1,0.8H53.8V208.8z"/>
									</defs>
									<use xlink:href="#XMLID_56_"  style="overflow:visible;fill:#E9B547;"/>
									<clipPath id="XMLID_14_">
										<use xlink:href="#XMLID_56_"  style="overflow:visible;"/>
									</clipPath>
									
										<rect x="47.5" y="204.5" transform="matrix(-1 -1.224647e-16 1.224647e-16 -1 195.678 414.0831)" class="st32" width="100.8" height="5"/>
									
										<rect x="15" y="242.4" transform="matrix(6.123234e-17 -1 1 6.123234e-17 -188.7312 299.6927)" class="st32" width="80.9" height="3.5"/>
									
										<rect x="47.5" y="276.7" transform="matrix(-1 -1.224647e-16 1.224647e-16 -1 195.678 559.971)" class="st32" width="100.8" height="6.5"/>
									<circle class="st32" cx="113.1" cy="283.8" r="15.4"/>
								</g>
							</g>
							<path class="st23" d="M176.8,281.9h-33.9v-76.1h33.9c1.2,0,2.2,1,2.2,2.2v71.7C178.9,280.9,178,281.9,176.8,281.9z"/>
							
								<rect x="145.8" y="209.6" transform="matrix(-1 -1.224647e-16 1.224647e-16 -1 322.3701 485.964)" class="st22" width="30.9" height="66.8"/>
						</g>
					</g>
				</g>
			</g>
		</g>
	</g>
</g>
</svg>
