<svg width="21" height="22" viewBox="0 0 21 22" fill="none" xmlns="http://www.w3.org/2000/svg">
<path d="M20.5643 6.04991V15.9515C20.5312 16.1588 20.5102 16.3676 20.4636 16.5718C19.9471 18.8696 18.5566 20.3429 16.2877 20.9737C15.9873 21.0548 15.687 21.0848 15.3777 21.1389H5.48053C5.41596 21.1269 5.35289 21.1119 5.28832 21.1044C4.73542 21.054 4.19484 20.9114 3.68907 20.6823C1.51172 19.6536 0.337453 17.9295 0.304418 15.5175C0.262373 12.5138 0.292433 9.49664 0.295436 6.48695C0.279197 5.52485 0.524699 4.57643 1.0057 3.74308C2.1229 1.84776 3.79721 0.877576 5.99708 0.865562C8.95226 0.850543 11.9089 0.865562 14.8566 0.865562C15.2391 0.858744 15.6212 0.892981 15.9963 0.967686C18.2923 1.47381 19.7594 2.87202 20.3901 5.1368C20.4802 5.43566 20.5102 5.74654 20.5643 6.04991ZM18.7623 11.021C18.7623 9.5492 18.7623 8.0774 18.7623 6.60559C18.7729 6.14318 18.7038 5.6824 18.5581 5.24342C17.9845 3.63045 16.597 2.66176 14.8431 2.66025C11.8999 2.66025 8.95825 2.65125 6.01658 2.66927C5.5621 2.66594 5.10999 2.73488 4.67715 2.87352C3.0554 3.41869 2.08986 4.82591 2.08686 6.57555C2.08686 9.52517 2.07786 12.4748 2.09587 15.4244C2.093 15.8723 2.16089 16.3178 2.29707 16.7445C2.83765 18.359 4.23716 19.3352 5.97603 19.3397C8.94523 19.3477 11.9139 19.3477 14.8821 19.3397C15.5023 19.3568 16.1169 19.2194 16.6707 18.94C17.2246 18.6605 17.7003 18.2477 18.0551 17.7387C18.538 17.0622 18.7869 16.2464 18.7638 15.4154C18.7638 13.9486 18.7648 12.4838 18.7668 11.021H18.7623Z" fill="white"/>
<path d="M15.6538 11.0098C15.6463 12.3946 15.0915 13.7202 14.1106 14.6976C13.1298 15.675 11.8023 16.2248 10.4176 16.2272C9.03267 16.2185 7.7074 15.6621 6.73116 14.6795C5.75492 13.6969 5.207 12.368 5.20703 10.9828C5.21691 9.60122 5.77145 8.27939 6.75019 7.30444C7.72893 6.32949 9.05281 5.7802 10.4342 5.77588C11.8188 5.78262 13.1445 6.33663 14.1223 7.31711C15.1001 8.29759 15.6506 9.62498 15.6538 11.0098ZM10.4372 7.57809C9.5298 7.57729 8.65918 7.93662 8.01644 8.5772C7.3737 9.21778 7.01136 10.0873 7.00897 10.9948C7.00976 11.901 7.36952 12.77 8.00952 13.4115C8.64951 14.053 9.51758 14.4147 10.4237 14.4175C11.3309 14.4187 12.2015 14.0597 12.8443 13.4193C13.4871 12.779 13.8495 11.9097 13.8519 11.0023C13.8511 10.0959 13.4913 9.2268 12.8514 8.58507C12.2114 7.94333 11.3434 7.58126 10.4372 7.57809Z" fill="white"/>
<path d="M15.8727 4.25488C16.2227 4.25647 16.5578 4.39652 16.8048 4.64444C17.0519 4.89236 17.1908 5.22799 17.1912 5.578C17.1857 5.9249 17.0446 6.25586 16.7982 6.50006C16.5518 6.74426 16.2196 6.88229 15.8727 6.8846C15.5213 6.88301 15.1848 6.74228 14.9369 6.49319C14.689 6.2441 14.5498 5.90694 14.5498 5.55547C14.5565 5.20873 14.6987 4.87839 14.946 4.63527C15.1933 4.39216 15.526 4.2556 15.8727 4.25488Z" fill="white"/>
</svg>
