<svg width="19" height="20" viewBox="0 0 19 20" fill="none" xmlns="http://www.w3.org/2000/svg">
<path d="M10.6069 19.6907H6.7168V7.12666H10.4294V8.81931C10.481 8.79024 10.5068 8.78378 10.5149 8.76925C11.3349 7.44646 12.5617 6.86178 14.079 6.81656C14.9393 6.76567 15.7994 6.92127 16.5874 7.27041C17.6172 7.75495 18.1935 8.60773 18.5115 9.66564C18.7501 10.506 18.8669 11.3763 18.8585 12.2498C18.8746 14.6725 18.8682 17.0952 18.8714 19.5179C18.8714 19.5551 18.8714 19.5922 18.8617 19.6439H14.9619V19.3822C14.9619 17.3278 14.9619 15.2717 14.9619 13.2157C14.961 12.7483 14.9194 12.282 14.8376 11.8218C14.6004 10.5297 13.7642 10.0985 12.5649 10.2406C11.4737 10.3698 10.8732 11.0078 10.7038 12.1901C10.6432 12.6225 10.6125 13.0585 10.6118 13.4951C10.6021 15.4591 10.6118 17.4215 10.6118 19.3855L10.6069 19.6907Z" fill="white"/>
<path d="M0.354492 7.12451H4.23978V19.6821H0.354492V7.12451Z" fill="white"/>
<path d="M4.55251 3.09987C4.55684 3.70112 4.3237 4.27975 3.90381 4.70988C3.48392 5.14 2.91125 5.3868 2.31042 5.39658C1.7063 5.3936 1.12783 5.15193 0.700952 4.72418C0.274072 4.29644 0.0333714 3.71727 0.03125 3.11279C0.0358403 2.51673 0.273638 1.94621 0.693661 1.52352C1.11368 1.10083 1.68249 0.859618 2.27814 0.851609C2.57504 0.849695 2.8694 0.906342 3.14441 1.01831C3.41943 1.13028 3.6697 1.29538 3.88091 1.50418C4.09213 1.71297 4.26017 1.96136 4.37541 2.23516C4.49064 2.50895 4.55082 2.80279 4.55251 3.09987Z" fill="white"/>
</svg>
