<svg width="21" height="14" viewBox="0 0 21 14" fill="none" xmlns="http://www.w3.org/2000/svg">
<path d="M10.4499 0C12.6039 0.0815224 14.7599 0.153343 16.9119 0.246512C17.421 0.27135 17.9278 0.328414 18.4289 0.417322C19.6437 0.62501 20.4237 1.40724 20.6544 2.62619C20.9489 4.29285 21.0557 5.98463 20.9728 7.67281C20.932 8.85295 20.8136 10.0331 20.6911 11.2093C20.6033 12.0711 20.2358 12.8048 19.4354 13.2959C18.9479 13.5623 18.4005 13.714 17.8388 13.7385C15.6676 13.9376 13.4865 14.0231 11.3054 13.9947C9.11259 13.983 6.92184 13.9209 4.73109 13.853C4.02546 13.8261 3.32197 13.7613 2.62403 13.6589C1.42759 13.492 0.610894 12.7097 0.361806 11.5374C0.143241 10.3646 0.029197 9.17634 0.0208564 7.98531C-0.0387673 6.42078 0.0294948 4.8542 0.225027 3.29972C0.270565 2.94991 0.338752 2.60311 0.429198 2.26128C0.710954 1.21702 1.60928 0.514374 2.79755 0.370739C4.83926 0.126172 6.90954 0.106756 8.96963 0.0737593C9.4576 0.0737593 9.9456 0.0737593 10.4336 0.0737593L10.4499 0ZM8.42451 4.04701V10.0117L13.8738 7.03034L8.42451 4.04701Z" fill="white"/>
</svg>
