<svg width="13" height="22" viewBox="0 0 13 22" fill="none" xmlns="http://www.w3.org/2000/svg">
<path d="M3.85711 21.9858C3.85711 21.8935 3.84496 21.8083 3.84496 21.7071C3.84496 18.5593 3.84496 15.4109 3.84496 12.2619V11.9602H0V8.05501H3.84496V7.78519C3.84496 6.76275 3.8207 5.73853 3.86926 4.71609C3.92795 3.48419 4.3428 2.35523 5.33439 1.43396C6.07768 0.76207 7.04097 0.309806 8.0906 0.139938C8.95124 0.00638838 9.82763 -0.0317814 10.6991 0.0263303C11.4074 0.0494063 12.1157 0.104441 12.8219 0.145268C12.8818 0.152069 12.9412 0.161544 13 0.173665V3.65992H12.743C11.8708 3.67057 10.9966 3.65991 10.1264 3.69896C9.09637 3.74689 8.5075 4.24746 8.47309 5.1563C8.42857 6.09887 8.45689 7.04498 8.45486 7.99643C8.46095 8.01819 8.47046 8.0391 8.48317 8.05855H12.8584C12.6661 9.37388 12.4779 10.659 12.2856 11.9637H8.46702C8.46702 12.0471 8.44676 12.1075 8.44676 12.1696V21.8509C8.44676 21.9006 8.44677 21.9503 8.45892 22L3.85711 21.9858Z" fill="white"/>
</svg>
